<svg xmlns="http://www.w3.org/2000/svg" viewBox="0 0 64 64">
  <!-- Carrot -->
  <path d="M32 58 L22 28 Q20 22 26 18 L38 18 Q44 22 42 28 Z" fill="#fb923c"/>
  <path d="M32 58 L28 28 Q28 24 32 22 Q36 24 36 28 Z" fill="#fdba74" opacity="0.5"/>
  <line x1="28" y1="35" x2="36" y2="35" stroke="#ea580c" stroke-width="1" opacity="0.5"/>
  <line x1="29" y1="42" x2="35" y2="42" stroke="#ea580c" stroke-width="1" opacity="0.5"/>
  <line x1="30" y1="49" x2="34" y2="49" stroke="#ea580c" stroke-width="1" opacity="0.5"/>
  <!-- Leaves -->
  <path d="M28 18 Q24 8 28 4 Q32 8 32 18" fill="#22c55e"/>
  <path d="M32 18 Q32 6 36 4 Q40 8 36 18" fill="#4ade80"/>
  <path d="M36 18 Q42 10 38 4 Q34 6 34 18" fill="#22c55e"/>
</svg>
